<?xml version="1.0" standalone="no"?>
<!DOCTYPE svg PUBLIC "-//W3C//DTD SVG 20010904//EN"
 "http://www.w3.org/TR/2001/REC-SVG-20010904/DTD/svg10.dtd">
<svg version="1.0" xmlns="http://www.w3.org/2000/svg"
 width="910.000000pt" height="512.000000pt" viewBox="0 0 910.000000 512.000000"
 preserveAspectRatio="xMidYMid meet">
<metadata>
Created by potrace 1.16, written by Peter Selinger 2001-2019
</metadata>
<g transform="translate(0.000000,512.000000) scale(0.100000,-0.100000)"
fill="#000000" stroke="none">
<path d="M4365 5113 c-201 -14 -486 -74 -680 -145 -244 -88 -537 -253 -741
-418 -123 -99 -330 -313 -426 -440 -118 -156 -187 -269 -268 -435 -186 -382
-273 -791 -256 -1206 27 -662 285 -1250 751 -1714 415 -414 904 -655 1495
-736 137 -19 516 -16 653 4 580 88 1056 326 1462 732 402 401 650 896 731
1460 21 147 25 516 6 650 -84 600 -322 1084 -737 1500 -201 202 -392 342 -637
469 -412 214 -884 311 -1353 279z m353 -779 c47 -9 118 -35 182 -66 91 -44
115 -62 195 -142 76 -76 99 -106 138 -186 63 -128 81 -207 81 -355 0 -146 -18
-226 -79 -350 -90 -185 -251 -323 -450 -385 -108 -34 -313 -40 -425 -11 -271
67 -475 267 -551 537 -29 102 -32 293 -6 399 70 280 295 497 582 560 83 18
241 18 333 -1z m137 -2029 c162 -25 320 -64 475 -115 441 -144 712 -359 750
-594 l9 -58 -57 -76 c-274 -365 -684 -621 -1143 -714 -99 -20 -144 -23 -339
-23 -195 0 -240 3 -339 23 -459 93 -869 349 -1143 714 l-57 76 9 58 c34 209
253 403 615 547 194 77 460 144 683 173 132 16 396 11 537 -11z"/>
</g>
</svg>
