<?xml version="1.0" standalone="no"?>
<!DOCTYPE svg PUBLIC "-//W3C//DTD SVG 20010904//EN"
 "http://www.w3.org/TR/2001/REC-SVG-20010904/DTD/svg10.dtd">
<svg version="1.0" xmlns="http://www.w3.org/2000/svg"
 width="880.000000pt" height="920.000000pt" viewBox="0 0 880.000000 920.000000"
 preserveAspectRatio="xMidYMid meet">
<metadata>
Created by potrace 1.16, written by Peter Selinger 2001-2019
</metadata>
<g transform="translate(0.000000,920.000000) scale(0.100000,-0.100000)"
fill="#FFFFFF" stroke="none">
<path d="M4170 8794 c-19 -2 -91 -9 -159 -14 -459 -40 -952 -181 -1382 -395
-396 -197 -740 -445 -1054 -760 -782 -782 -1206 -1841 -1172 -2930 4 -110 11
-245 17 -300 97 -920 501 -1767 1154 -2421 516 -516 1152 -877 1855 -1053 499
-125 1028 -153 1536 -80 738 106 1402 402 2005 895 104 85 349 327 455 449
117 135 267 339 367 498 96 154 251 454 312 607 140 347 238 743 278 1120 17
162 17 618 0 780 -99 937 -499 1779 -1156 2436 -655 654 -1494 1054 -2421
1154 -101 11 -571 22 -635 14z m717 -363 c829 -116 1552 -481 2133 -1077 558
-572 892 -1253 1012 -2064 20 -138 23 -192 23 -490 0 -354 -11 -470 -66 -739
-100 -487 -314 -978 -602 -1380 -89 -123 -275 -351 -287 -351 -4 0 -13 34 -19
75 -49 303 -172 632 -347 926 -308 519 -827 949 -1394 1154 -58 21 -109 41
-113 45 -4 4 25 28 65 55 364 241 612 611 700 1048 33 160 32 462 -1 617 -50
237 -154 470 -290 650 -523 697 -1478 864 -2199 383 -353 -235 -602 -605 -693
-1033 -33 -154 -34 -457 -2 -615 90 -442 341 -816 707 -1054 43 -28 72 -53 65
-55 -751 -234 -1398 -828 -1693 -1554 -80 -196 -139 -397 -167 -569 -7 -40
-15 -73 -19 -73 -12 0 -197 226 -276 336 -355 499 -569 1035 -656 1652 -30
214 -33 722 -5 932 94 699 353 1307 792 1855 44 55 145 167 225 249 306 314
614 538 1005 731 423 209 817 318 1330 369 22 2 171 3 330 1 231 -2 321 -7
442 -24z m-177 -1249 c440 -114 773 -427 914 -857 77 -235 77 -532 0 -776
-139 -441 -505 -773 -959 -870 -708 -151 -1406 324 -1531 1045 -24 137 -15
388 19 516 88 334 273 594 554 777 218 142 446 205 723 199 144 -3 180 -7 280
-34z m7 -2887 c516 -68 995 -306 1368 -680 274 -274 461 -578 581 -942 64
-194 114 -460 114 -608 l0 -50 -83 -66 c-543 -435 -1147 -692 -1847 -786 -107
-14 -202 -18 -455 -18 -344 0 -454 11 -747 70 -549 112 -1083 365 -1546 734
l-84 66 6 103 c9 140 41 322 82 465 262 913 1022 1574 1968 1712 131 19 497
19 643 0z"/>
</g>
</svg>
